<?xml version="1.0" encoding="UTF-8"?>
<svg version="1.1" xmlns="http://www.w3.org/2000/svg" width="256" height="256">
<path d="M0 0 C84.48 0 168.96 0 256 0 C256 78.54 256 157.08 256 238 C171.52 238 87.04 238 0 238 C0 159.46 0 80.92 0 0 Z " fill="#5B6F6F" transform="translate(0,9)"/>
<path d="M0 0 C0.62132812 0.44601563 1.24265625 0.89203125 1.8828125 1.3515625 C14.76653419 11.11922127 22.92932569 28.77588131 25.56640625 44.34375 C28.17651539 66.35331892 22.32384124 86.00231447 8.9375 103.5 C-3.81024122 118.59657126 -21.5908936 127.16497544 -41.15869141 129.22753906 C-59.83325795 130.58120037 -78.38743388 125.0049576 -92.8515625 112.93359375 C-109.48730904 97.96142186 -118.65417239 80.90467222 -120.25 58.48828125 C-120.87566432 39.77700767 -114.56421762 21.99139041 -102 8 C-101.27167969 7.17886719 -100.54335937 6.35773438 -99.79296875 5.51171875 C-72.91432013 -23.1038377 -30.00289292 -24.10068448 0 0 Z " fill="#F0A852" transform="translate(176,72)"/>
<path d="M0 0 C23.43 0 46.86 0 71 0 C71 29.04 71 58.08 71 88 C68.36335259 85.36335259 66.744776 83.24029829 65 80 C65 79.34 65 78.68 65 78 C61.72713318 80.7819368 60.03572303 84.27954067 58 88 C57.34 88 56.68 88 56 88 C54.7109375 86.3203125 54.7109375 86.3203125 53.375 84.125 C52.92898437 83.40570313 52.48296875 82.68640625 52.0234375 81.9453125 C51 80 51 80 51 78 C47.72713318 80.7819368 46.03572303 84.27954067 44 88 C43.34 88 42.68 88 42 88 C40.35 85.03 38.7 82.06 37 79 C36.34 79 35.68 79 35 79 C33.35 81.97 31.7 84.94 30 88 C29.34 88 28.68 88 28 88 C27.66226563 87.36191406 27.32453125 86.72382813 26.9765625 86.06640625 C26.53054687 85.24011719 26.08453125 84.41382813 25.625 83.5625 C25.18414062 82.73878906 24.74328125 81.91507812 24.2890625 81.06640625 C23.16581441 78.86533422 23.16581441 78.86533422 21 78 C20.731875 78.721875 20.46375 79.44375 20.1875 80.1875 C19.00098638 82.99766383 17.72514361 85.48416557 16 88 C15.34 88 14.68 88 14 88 C13.66226563 87.36191406 13.32453125 86.72382813 12.9765625 86.06640625 C12.53054687 85.24011719 12.08453125 84.41382813 11.625 83.5625 C11.18414062 82.73878906 10.74328125 81.91507812 10.2890625 81.06640625 C9.16581441 78.86533422 9.16581441 78.86533422 7 78 C6.731875 78.721875 6.46375 79.44375 6.1875 80.1875 C5.00098638 82.99766383 3.72514361 85.48416557 2 88 C1.34 88 0.68 88 0 88 C0 58.96 0 29.92 0 0 Z " fill="#DBA056" transform="translate(93,84)"/>
<path d="M0 0 C23.43 0 46.86 0 71 0 C71 29.04 71 58.08 71 88 C68.36335259 85.36335259 66.744776 83.24029829 65 80 C65 79.34 65 78.68 65 78 C61.72713318 80.7819368 60.03572303 84.27954067 58 88 C57.34 88 56.68 88 56 88 C54.7109375 86.3203125 54.7109375 86.3203125 53.375 84.125 C52.92898437 83.40570313 52.48296875 82.68640625 52.0234375 81.9453125 C51 80 51 80 51 78 C47.72713318 80.7819368 46.03572303 84.27954067 44 88 C43.34 88 42.68 88 42 88 C40.35 85.03 38.7 82.06 37 79 C36.34 79 35.68 79 35 79 C33.35 81.97 31.7 84.94 30 88 C29.34 88 28.68 88 28 88 C27.66226563 87.36191406 27.32453125 86.72382813 26.9765625 86.06640625 C26.53054687 85.24011719 26.08453125 84.41382813 25.625 83.5625 C25.18414062 82.73878906 24.74328125 81.91507812 24.2890625 81.06640625 C23.16581441 78.86533422 23.16581441 78.86533422 21 78 C20.731875 78.721875 20.46375 79.44375 20.1875 80.1875 C19.00098638 82.99766383 17.72514361 85.48416557 16 88 C15.34 88 14.68 88 14 88 C13.66226563 87.36191406 13.32453125 86.72382813 12.9765625 86.06640625 C12.53054687 85.24011719 12.08453125 84.41382813 11.625 83.5625 C11.18414062 82.73878906 10.74328125 81.91507812 10.2890625 81.06640625 C9.16581441 78.86533422 9.16581441 78.86533422 7 78 C6.731875 78.721875 6.46375 79.44375 6.1875 80.1875 C5.00098638 82.99766383 3.72514361 85.48416557 2 88 C1.34 88 0.68 88 0 88 C0 58.96 0 29.92 0 0 Z M2 1 C2 28.06 2 55.12 2 83 C5.7555494 78.66350878 5.7555494 78.66350878 7 76 C7.66 76 8.32 76 9 76 C10.2890625 77.75 10.2890625 77.75 11.625 80 C12.07101563 80.7425 12.51703125 81.485 12.9765625 82.25 C13.48316406 83.11625 13.48316406 83.11625 14 84 C18.42679007 82.52440331 18.91432696 80.09942632 21 76 C21 75.34 21 74.68 21 74 C21.66 74 22.32 74 23 74 C23.268125 74.721875 23.53625 75.44375 23.8125 76.1875 C24.98982498 78.97590126 26.39145884 81.44095724 28 84 C31.40451771 82.86516076 31.6005564 82.44722063 33.1875 79.4375 C33.785625 78.303125 34.38375 77.16875 35 76 C35.66 76 36.32 76 37 76 C38.65 78.97 40.3 81.94 42 85 C45.48331435 81.98112756 46.79157144 79.43090471 48 75 C48.99 75 49.98 75 51 75 C51.2475 75.721875 51.495 76.44375 51.75 77.1875 C53.10983674 80.24713266 54.82917754 82.4673738 57 85 C58.98 81.7 60.96 78.4 63 75 C63.598125 75.763125 64.19625 76.52625 64.8125 77.3125 C67.03799512 80.14002399 67.03799512 80.14002399 70 83 C70 55.94 70 28.88 70 1 C47.56 1 25.12 1 2 1 Z " fill="#68746C" transform="translate(93,84)"/>
<path d="M0 0 C11.88 0 23.76 0 36 0 C36 4.29 36 8.58 36 13 C24.12 13 12.24 13 0 13 C0 8.71 0 4.42 0 0 Z " fill="#E8A554" transform="translate(118,92)"/>
<path d="M0 0 C17.82 0 35.64 0 54 0 C54 4.95 54 9.9 54 15 C36.18 15 18.36 15 0 15 C0 10.05 0 5.1 0 0 Z M16 1 C16 5.29 16 9.58 16 14 C27.88 14 39.76 14 52 14 C52 9.71 52 5.42 52 1 C40.12 1 28.24 1 16 1 Z " fill="#65736D" transform="translate(102,91)"/>
<path d="M0 0 C0.99 0.495 0.99 0.495 2 1 C2.33 27.4 2.66 53.8 3 81 C3.66 81 4.32 81 5 81 C4.1875 83.9375 4.1875 83.9375 3 87 C1.515 87.495 1.515 87.495 0 88 C0 58.96 0 29.92 0 0 Z " fill="#797A68" transform="translate(93,84)"/>
<path d="M0 0 C3.96 0 7.92 0 12 0 C12 4.29 12 8.58 12 13 C8.04 13 4.08 13 0 13 C0 8.71 0 4.42 0 0 Z " fill="#E7A454" transform="translate(104,92)"/>
</svg>
